# xmcd
#
# Track frame offsets: 
#        150
#        10072
#        30290
#        52786
#        76985
#        98159
#        128204
#        149045
#        169190
#        204156
#        237358
#        259169
#        302096
#        314364
#
# Disc length: 4587 seconds
#
# Revision: 0
# Processed by: cddbd v1.5.2PL0 Copyright (c) Steve Scherf et al.
# Submitted via: ExactAudioCopyFreeDBPlugin 1.0
#
DISCID=b011e90e
DTITLE=Malted Milk - On Stage Tonight!
DYEAR=2014
DGENRE=Blues
TTITLE0=Introducing
TTITLE1=Touch You
TTITLE2=Easy Baby
TTITLE3=Human Wave
TTITLE4=Sweet Baby
TTITLE5=Nola Dance
TTITLE6=Hope She Believes In Me
TTITLE7=Sunshine
TTITLE8=True Love
TTITLE9=Down The Road
TTITLE10=That Wiggle
TTITLE11=Da Bump
TTITLE12=Final
TTITLE13=Brand New Man (Bonus Track)
EXTD=
EXTT0=
EXTT1=
EXTT2=
EXTT3=
EXTT4=
EXTT5=
EXTT6=
EXTT7=
EXTT8=
EXTT9=
EXTT10=
EXTT11=
EXTT12=
EXTT13=
PLAYORDER=
